<?xml version="1.0" encoding="utf-8"?>
<!-- Generator: Adobe Illustrator 22.1.0, SVG Export Plug-In . SVG Version: 6.00 Build 0)  -->
<svg version="1.1" id="Layer_1" xmlns="http://www.w3.org/2000/svg" xmlns:xlink="http://www.w3.org/1999/xlink" x="0px" y="0px"
	 viewBox="0 0 39 39" style="enable-background:new 0 0 39 39;" xml:space="preserve">
<rect x="24.7" y="11" transform="matrix(-1 -1.224647e-16 1.224647e-16 -1 52.1667 38.4989)" width="2.8" height="16.5"/>
<g>
	<path d="M25.4,19l-13.8-7.7c-0.2-0.1-0.3-0.1-0.4,0c-0.1,0.1-0.2,0.2-0.2,0.4v15.3c0,0.2,0.1,0.3,0.2,0.4c0.1,0.1,0.3,0.1,0.4,0
		l13.8-7.7c0.2-0.1,0.2-0.2,0.2-0.3C25.6,19.2,25.5,19.1,25.4,19z"/>
</g>
<rect x="24.7" y="11" transform="matrix(-1 -1.224647e-16 1.224647e-16 -1 52.1667 38.4989)" width="2.8" height="16.5"/>
</svg>
