<?xml version="1.0" encoding="utf-8"?>
<!-- Generator: Adobe Illustrator 22.1.0, SVG Export Plug-In . SVG Version: 6.00 Build 0)  -->
<svg version="1.1" id="Layer_1" xmlns="http://www.w3.org/2000/svg" xmlns:xlink="http://www.w3.org/1999/xlink" x="0px" y="0px"
	 viewBox="0 0 20 20" style="enable-background:new 0 0 20 20;" xml:space="preserve">
<style type="text/css">
	.st0{fill:#2AF598;}
	.st1{fill:#FFFFFF;}
</style>
<title>Now Playing</title>
<desc>Created with Sketch.</desc>
<g id="_x30_5.100.00-OpenSource-Amplitude">
	<g id="HD_05.100.00-521Website_OpenSource-Amplitude" transform="translate(-729.000000, -384.000000)">
		<g id="Lead-in">
			<g id="Player" transform="translate(368.000000, 359.000000)">
				<g id="Playlist" transform="translate(352.000000, 5.000000)">
					<g id="Song-Item" transform="translate(1.000000, 0.000000)">
						<g id="Now-Playing">
							<g transform="translate(8.000000, 20.000000)">
								<circle id="Oval-1" class="st0" cx="10" cy="10" r="10"/>
								<path id="Fill-156" class="st1" d="M8.9,12.1c-0.1,0-0.2,0-0.3-0.1l0,0L7,10.9H5.5c-0.3,0-0.5-0.2-0.5-0.5V8.9
									c0-0.3,0.2-0.5,0.5-0.5v0H7l1.6-1.3l0,0C8.7,7,8.8,7,8.9,7c0.3,0,0.5,0.2,0.5,0.5v4.2C9.4,11.9,9.2,12.1,8.9,12.1L8.9,12.1z
									 M10.8,11.8l-0.4-0.4c0.4-0.5,0.6-1.1,0.6-1.8s-0.2-1.3-0.6-1.8l0.4-0.4c0.5,0.6,0.8,1.4,0.8,2.2
									C11.6,10.5,11.3,11.2,10.8,11.8L10.8,11.8z M12,13.1l-0.4-0.4c0.7-0.8,1.1-1.8,1.1-3s-0.4-2.2-1.1-3L12,6.2
									c0.8,0.9,1.3,2.1,1.3,3.4S12.8,12.1,12,13.1L12,13.1z M13.2,14.3l-0.4-0.4c1-1.1,1.6-2.6,1.6-4.2s-0.6-3.1-1.6-4.2L13.2,5
									C14.3,6.2,15,7.8,15,9.6S14.3,13,13.2,14.3L13.2,14.3z"/>
							</g>
						</g>
					</g>
				</g>
			</g>
		</g>
	</g>
</g>
</svg>
