<?xml version="1.0" encoding="utf-8"?>
<!-- Generator: Adobe Illustrator 22.1.0, SVG Export Plug-In . SVG Version: 6.00 Build 0)  -->
<svg version="1.1" id="Layer_1" xmlns="http://www.w3.org/2000/svg" xmlns:xlink="http://www.w3.org/1999/xlink" x="0px" y="0px"
	 viewBox="0 0 60 60" style="enable-background:new 0 0 60 60;" xml:space="preserve">
<style type="text/css">
	.st0{fill:#2AF598;}
	.st1{fill:#FFFFFF;}
</style>
<title>Oval 1</title>
<desc>Created with Sketch.</desc>
<g id="_x30_5.100.00-OpenSource-Amplitude">
	<g id="HD_05.100.00-521Website_OpenSource-Amplitude" transform="translate(-515.000000, -772.000000)">
		<g id="Lead-in">
			<g id="Player" transform="translate(368.000000, 359.000000)">
				<g id="Controllers_x2F_Status_x2F_Info" transform="translate(0.000000, 357.000000)">
					<g id="Controls" transform="translate(114.000000, 56.000000)">
						<g id="Play_x2F_Pause" transform="translate(33.000000, 0.000000)">
							<g id="Oval-1">
								<circle class="st0" cx="30" cy="30" r="30"/>
								<path id="Shape" class="st1" d="M40.6,16.6h-4.3c-1.2,0-2.2,1-2.2,2.2v23.6c0,1.2,1,2.2,2.2,2.2h4.3c1.2,0,2.2-1,2.2-2.2
									V18.8C42.8,17.6,41.8,16.6,40.6,16.6L40.6,16.6z"/>
								<path id="Shape_1_" class="st1" d="M24.2,16.6h-4.3c-1.2,0-2.2,1-2.2,2.2v23.6c0,1.2,1,2.2,2.2,2.2h4.3c1.2,0,2.2-1,2.2-2.2
									V18.8C26.4,17.6,25.4,16.6,24.2,16.6L24.2,16.6z"/>
							</g>
						</g>
					</g>
				</g>
			</g>
		</g>
	</g>
</g>
</svg>
