<?xml version="1.0" encoding="utf-8"?>
<!-- Generator: Adobe Illustrator 22.1.0, SVG Export Plug-In . SVG Version: 6.00 Build 0)  -->
<svg version="1.1" id="Layer_1" xmlns="http://www.w3.org/2000/svg" xmlns:xlink="http://www.w3.org/1999/xlink" x="0px" y="0px"
	 viewBox="0 0 60 60" style="enable-background:new 0 0 60 60;" xml:space="preserve">
<title>Oval 1</title>
<desc>Created with Sketch.</desc>
<g>
	<path d="M47.1,29.5L22.3,15.8c-0.3-0.2-0.5-0.2-0.7-0.1c-0.2,0.1-0.3,0.3-0.3,0.7v27.4c0,0.3,0.1,0.5,0.3,0.7
		c0.2,0.1,0.5,0.1,0.7-0.1l24.7-13.8c0.3-0.2,0.4-0.4,0.4-0.6C47.5,29.9,47.4,29.7,47.1,29.5z"/>
</g>
<path d="M30,0C13.5,0,0,13.5,0,30s13.5,30,30,30s30-13.5,30-30S46.5,0,30,0z M30,57.4C14.9,57.4,2.6,45.1,2.6,30S14.9,2.6,30,2.6
	S57.4,14.9,57.4,30S45.1,57.4,30,57.4z"/>
</svg>
