<?xml version="1.0" encoding="utf-8"?>
<!-- Generator: Adobe Illustrator 22.1.0, SVG Export Plug-In . SVG Version: 6.00 Build 0)  -->
<svg version="1.1" id="Layer_1" xmlns="http://www.w3.org/2000/svg" xmlns:xlink="http://www.w3.org/1999/xlink" x="0px" y="0px"
	 viewBox="0 0 24 19" style="enable-background:new 0 0 24 19;" xml:space="preserve">
<style type="text/css">
	.st0{fill:#2AF598;}
</style>
<title>Fill 39</title>
<desc>Created with Sketch.</desc>
<g id="_x30_5.100.00-OpenSource-Amplitude">
	<g id="HD_05.100.00-521Website_OpenSource-Amplitude" transform="translate(-427.000000, -792.000000)">
		<g id="Lead-in">
			<g id="Player" transform="translate(368.000000, 359.000000)">
				<g id="Controllers_x2F_Status_x2F_Info" transform="translate(0.000000, 357.000000)">
					<path id="Fill-39" class="st0" d="M75.9,83.3c-0.2,0.2-0.5,0.3-0.8,0.3c-0.6,0-1.1-0.5-1.1-1.1c0-0.3,0.1-0.6,0.3-0.8l0.7-0.7
						h-9.3c-2.5,0-4.5,2-4.5,4.6v2.7c0,0.6-0.5,1.1-1.1,1.1c-0.6,0-1.1-0.5-1.1-1.1v-2.7c0-3.8,3-6.8,6.8-6.8H75l-0.7-0.7
						c-0.2-0.2-0.3-0.5-0.3-0.8c0-0.6,0.5-1.1,1.1-1.1c0.3,0,0.6,0.1,0.8,0.3l2.6,2.7c0.2,0.2,0.3,0.5,0.3,0.8
						c0,0.3-0.1,0.6-0.3,0.8L75.9,83.3L75.9,83.3z M76.2,92.3H67l0.7,0.7c0.2,0.2,0.3,0.5,0.3,0.8c0,0.6-0.5,1.1-1.1,1.1
						c-0.3,0-0.6-0.1-0.8-0.3L63.5,92c-0.2-0.2-0.3-0.5-0.3-0.8c0-0.3,0.1-0.6,0.3-0.8l2.6-2.7c0.2-0.2,0.5-0.3,0.8-0.3
						c0.6,0,1.1,0.5,1.1,1.1c0,0.3-0.1,0.6-0.3,0.8L67,90.1h9.3c2.5,0,4.5-2,4.5-4.6v-2.7c0-0.6,0.5-1.1,1.1-1.1s1.1,0.5,1.1,1.1
						v2.7C83,89.3,80,92.3,76.2,92.3L76.2,92.3z"/>
				</g>
			</g>
		</g>
	</g>
</g>
</svg>
